<svg viewBox="0 0 24 24" xmlns="http://www.w3.org/2000/svg">
  <path d="M3 3l18 18" stroke="currentColor" stroke-width="2" fill="none" stroke-linecap="round" stroke-linejoin="round"/>
  <path d="M5.5 5.5C3.4 7 2 9 2 12c2 3.5 5.5 6 10 6 2.2 0 4.1-.7 5.7-1.8M12 5c2.5 0 4.7 1 6.5 2.5 1 .8 2 2 2.5 3.5-.5.8-1 1.6-1.7 2.4"
        stroke="currentColor" stroke-width="2" fill="none" stroke-linecap="round" stroke-linejoin="round"/>
  <path d="M9.9 9.9a3 3 0 0 1 4.2 4.2" stroke="currentColor" stroke-width="2" fill="none" stroke-linecap="round" stroke-linejoin="round"/>
  <path d="M9 13a3 3 0 0 0 4.2 4.2" stroke="currentColor" stroke-width="2" fill="none" stroke-linecap="round" stroke-linejoin="round"/>
</svg>
